<svg xmlns="http://www.w3.org/2000/svg" version="1.1" xmlns:xlink="http://www.w3.org/1999/xlink" xmlns:svgjs="http://svgjs.dev/svgjs" width="2000" height="535" viewBox="0 0 2000 535"><g transform="matrix(1,0,0,1,-1.2121212121212466,-0.6440527966802279)"><svg viewBox="0 0 396 106" data-background-color="#001f3f" preserveAspectRatio="xMidYMid meet" height="535" width="2000" xmlns="http://www.w3.org/2000/svg" xmlns:xlink="http://www.w3.org/1999/xlink"><g id="tight-bounds" transform="matrix(1,0,0,1,0.2400000000000091,0.12760672233289938)"><svg viewBox="0 0 395.52 105.74478655533419" height="105.74478655533419" width="395.52"><g><svg viewBox="0 0 562.7634503207621 150.4583862644428" height="105.74478655533419" width="395.52"><g transform="matrix(1,0,0,1,167.24345032076215,22.379662318414624)"><svg viewBox="0 0 395.52 105.69906162761355" height="105.69906162761355" width="395.52"><g id="textblocktransform"><svg viewBox="0 0 395.52 105.69906162761355" height="105.69906162761355" width="395.52" id="textblock"><g><svg viewBox="0 0 395.52 71.10025608837559" height="71.10025608837559" width="395.52"><g transform="matrix(1,0,0,1,0,0)"><svg width="395.52" viewBox="3 -35.4 199.13 35.800000000000004" height="71.10025608837559" data-palette-color="#ffffff"><path d="M14.35 0.4Q11 0.4 8.43-1.2 5.85-2.8 4.42-5.68 3-8.55 3-12.3L3-12.3 3-22.7Q3-26.45 4.42-29.35 5.85-32.25 8.47-33.83 11.1-35.4 14.55-35.4L14.55-35.4 19.85-35.4Q23.1-35.4 25.58-34 28.05-32.6 29.43-30.05 30.8-27.5 30.8-24.2L30.8-24.2 27.2-24.2Q27.2-27.75 25.18-29.93 23.15-32.1 19.85-32.1L19.85-32.1 14.55-32.1Q11-32.1 8.85-29.53 6.7-26.95 6.7-22.7L6.7-22.7 6.7-12.3Q6.7-8.05 8.8-5.48 10.9-2.9 14.35-2.9L14.35-2.9 19.75-2.9Q23.15-2.9 25.23-5.3 27.3-7.7 27.3-11.6L27.3-11.6 30.9-11.6Q30.9-8.05 29.5-5.33 28.1-2.6 25.58-1.1 23.05 0.4 19.75 0.4L19.75 0.4 14.35 0.4ZM44 0.4Q40.35 0.4 38.17-1.5 36-3.4 36-6.6L36-6.6 36-8.2Q36-11.35 38.25-13.25 40.5-15.15 44.2-15.15L44.2-15.15 47.4-15.15Q49.05-15.15 50.8-14.65 52.55-14.15 53.8-13.3L53.8-13.3 53.8-17.45Q53.8-19.55 52.5-20.88 51.2-22.2 49.05-22.2L49.05-22.2 45.05-22.2Q42.9-22.2 41.6-21.2 40.3-20.2 40.3-18.55L40.3-18.55 36.7-18.55Q36.7-21.6 39-23.48 41.3-25.35 45.05-25.35L45.05-25.35 49.05-25.35Q52.75-25.35 55.02-23.18 57.3-21 57.3-17.45L57.3-17.45 57.3 0 53.9 0 53.9-3.5Q52.75-1.7 50.87-0.65 49 0.4 47 0.4L47 0.4 44 0.4ZM44-2.75L47.1-2.75Q49.45-2.75 51.3-4.2 53.15-5.65 53.8-8.05L53.8-8.05 53.8-9.9Q52.8-10.85 51.02-11.43 49.25-12 47.4-12L47.4-12 44.2-12Q42.15-12 40.87-10.95 39.6-9.9 39.6-8.2L39.6-8.2 39.6-6.6Q39.6-4.85 40.8-3.8 42-2.75 44-2.75L44-2.75ZM64.59 0L64.59-24.95 68.09-24.95 68.09-21.1Q69.09-22.85 71.12-23.95 73.15-25.05 75.34-25.05L75.34-25.05 77.55-25.05 77.55-21.8 75.34-21.8Q72.15-21.8 70.17-19.78 68.2-17.75 68.2-14.4L68.2-14.4 68.2 0 64.59 0ZM89.84 0.4Q85.64 0.4 83.09-2.08 80.54-4.55 80.54-8.65L80.54-8.65 80.54-15.8Q80.54-20.1 83.09-22.73 85.64-25.35 89.84-25.35L89.84-25.35 93.94-25.35Q97.94-25.35 100.39-22.8 102.84-20.25 102.84-16.05L102.84-16.05 102.84-11.65 84.14-11.65 84.14-8.65Q84.14-6.05 85.72-4.42 87.29-2.8 89.84-2.8L89.84-2.8 93.64-2.8Q96.14-2.8 97.69-4.17 99.24-5.55 99.24-7.85L99.24-7.85 102.74-7.85Q102.74-4.15 100.24-1.88 97.74 0.4 93.64 0.4L93.64 0.4 89.84 0.4ZM84.14-14.75L99.24-14.75 99.24-16.05Q99.24-18.8 97.79-20.48 96.34-22.15 93.94-22.15L93.94-22.15 89.84-22.15Q87.29-22.15 85.72-20.4 84.14-18.65 84.14-15.8L84.14-15.8 84.14-14.75ZM109.34 0L109.34-35 126.29-35Q130.19-35 132.56-32.8 134.94-30.6 134.94-27L134.94-27 134.94-21.85Q134.94-18 132.39-15.63 129.84-13.25 125.69-13.25L125.69-13.25 113.04-13.25 113.04 0 109.34 0ZM113.04-16.55L125.59-16.55Q128.14-16.55 129.69-18.03 131.24-19.5 131.24-21.95L131.24-21.95 131.24-27.1Q131.24-29.15 129.87-30.43 128.49-31.7 126.19-31.7L126.19-31.7 113.04-31.7 113.04-16.55ZM147.24 0Q143.54 0 141.94-1.58 140.34-3.15 140.34-6.8L140.34-6.8 140.34-35 143.94-35 143.94-6.8Q143.94-4.9 144.71-4.05 145.49-3.2 147.24-3.2L147.24-3.2 148.94-3.2 148.94 0 147.24 0ZM161.19 0.4Q157.74 0.4 155.59-1.95 153.44-4.3 153.44-8.1L153.44-8.1 153.44-24.95 157.04-24.95 157.04-8Q157.04-5.65 158.19-4.23 159.34-2.8 161.19-2.8L161.19-2.8 164.29-2.8Q166.59-2.8 168.54-4.65 170.49-6.5 171.04-9.3L171.04-9.3 171.04-24.95 174.64-24.95 174.64 0 171.14 0 171.14-3.8Q169.99-2 168.09-0.8 166.19 0.4 164.39 0.4L164.39 0.4 161.19 0.4ZM189.33 0.4Q185.53 0.4 183.23-1.75 180.93-3.9 180.93-7.4L180.93-7.4 184.43-7.4Q184.43-5.3 185.78-4 187.13-2.7 189.33-2.7L189.33-2.7 193.68-2.7Q195.83-2.7 197.18-3.58 198.53-4.45 198.53-5.85L198.53-5.85 198.53-7.55Q198.53-8.5 197.78-9.22 197.03-9.95 195.83-10.2L195.83-10.2 187.18-11.7Q184.58-12.15 183.01-13.68 181.43-15.2 181.43-17.25L181.43-17.25 181.43-18.9Q181.43-21.8 183.63-23.58 185.83-25.35 189.43-25.35L189.43-25.35 193.73-25.35Q197.23-25.35 199.38-23.38 201.53-21.4 201.53-18.15L201.53-18.15 198.03-18.15Q197.98-20 196.81-21.13 195.63-22.25 193.73-22.25L193.73-22.25 189.43-22.25Q187.43-22.25 186.23-21.33 185.03-20.4 185.03-18.9L185.03-18.9 185.03-17.45Q185.03-16.5 185.86-15.75 186.68-15 187.98-14.8L187.98-14.8 196.58-13.3Q199.08-12.85 200.61-11.35 202.13-9.85 202.13-7.75L202.13-7.75 202.13-5.75Q202.13-3 199.81-1.3 197.48 0.4 193.68 0.4L193.68 0.4 189.33 0.4Z" opacity="1" transform="matrix(1,0,0,1,0,0)" fill="#ffffff" class="wordmark-text-0" data-fill-palette-color="primary" id="text-0"></path></svg></g></svg></g><g transform="matrix(1,0,0,1,0,87.88532014469494)"><svg viewBox="0 0 232.209792 17.813741482918598" height="17.813741482918598" width="232.209792"><g transform="matrix(1,0,0,1,0,0)"><svg width="232.209792" viewBox="3.78 -40.5 533.4200000000001 40.93" height="17.813741482918598" data-palette-color="#00d1cd"><path d="M30.5 0L25.38 0 25.38-18.13 9.63-18.13 9.63 0 4.5 0 4.5-32.25 3.78-37.5 9.63-38 9.63-22.13 25.38-22.13 25.38-37.55 30.5-38 30.5 0ZM56.42-5.63L59.15-3.23Q58.37-2.43 57.45-1.75 56.52-1.07 55.4-0.59 54.27-0.1 52.91 0.16 51.55 0.43 49.87 0.43L49.87 0.43Q46.55 0.43 44.2-0.75 41.85-1.93 40.36-3.9 38.87-5.88 38.19-8.43 37.5-10.98 37.5-13.75L37.5-13.75Q37.5-15.53 37.82-17.26 38.15-19 38.8-20.58 39.45-22.15 40.42-23.5 41.4-24.85 42.7-25.83 44-26.8 45.64-27.36 47.27-27.93 49.25-27.93L49.25-27.93Q51.95-27.93 53.92-27.05 55.9-26.18 57.2-24.6 58.5-23.03 59.12-20.83 59.75-18.63 59.75-15.95L59.75-15.95Q59.75-15.18 59.7-14.25 59.65-13.33 59.55-12.5L59.55-12.5 42.25-12.5Q42.25-10.63 42.76-9 43.27-7.38 44.2-6.16 45.12-4.95 46.44-4.26 47.75-3.58 49.37-3.58L49.37-3.58Q50.97-3.58 52.16-3.81 53.35-4.05 54.2-4.39 55.05-4.73 55.59-5.08 56.12-5.43 56.42-5.63L56.42-5.63ZM45.87-16.25L55-16.25Q55.02-16.53 55.04-16.8 55.05-17.07 55.05-17.35L55.05-17.35Q55.05-18.78 54.72-19.98 54.4-21.18 53.73-22.06 53.07-22.95 52.05-23.45 51.02-23.95 49.62-23.95L49.62-23.95Q47.95-23.95 46.76-23.41 45.57-22.88 44.76-22.04 43.95-21.2 43.46-20.2 42.97-19.2 42.72-18.3L42.72-18.3 41.42-15.58 45.87-16.25ZM85-4.5L85.5 0 80.25 0 80.25-4.05 77.9-1.25Q77.47-0.93 76.92-0.63 76.37-0.33 75.81-0.09 75.25 0.15 74.68 0.29 74.12 0.43 73.65 0.43L73.65 0.43Q71.77 0.43 70.06-0.16 68.34-0.75 67.06-1.89 65.77-3.03 65.01-4.71 64.25-6.4 64.25-8.6L64.25-8.6Q64.25-10.93 65.18-12.64 66.12-14.35 67.58-15.49 69.05-16.63 70.84-17.19 72.65-17.75 74.37-17.75L74.37-17.75Q75.8-17.75 76.88-17.6 77.97-17.45 78.72-17.25L78.72-17.25Q79.59-17.03 80.25-16.75L80.25-16.75 80.25-17.63Q80.25-19.1 80.07-20.28 79.9-21.45 79.36-22.26 78.82-23.08 77.81-23.5 76.8-23.93 75.12-23.93L75.12-23.93Q73.77-23.93 72.52-23.74 71.27-23.55 70.3-23.33L70.3-23.33Q69.15-23.05 68.17-22.75L68.17-22.75 66.37-26.1Q67.47-26.6 68.87-27L68.87-27Q70.07-27.35 71.72-27.64 73.37-27.93 75.37-27.93L75.37-27.93Q78.25-27.93 80.12-27.15 82-26.38 83.07-24.98 84.15-23.58 84.57-21.61 85-19.65 85-17.25L85-17.25 85-4.5ZM80.25-6.85L80.25-13.33Q79.55-13.43 78.75-13.53L78.75-13.53Q78.07-13.6 77.2-13.68 76.32-13.75 75.37-13.75L75.37-13.75Q73.97-13.75 72.81-13.48 71.65-13.2 70.8-12.59 69.95-11.98 69.47-11 69-10.03 69-8.63L69-8.63Q69-7.5 69.37-6.58 69.75-5.65 70.4-4.98 71.05-4.3 71.93-3.94 72.82-3.58 73.84-3.58L73.84-3.58Q74.32-3.58 74.86-3.71 75.4-3.85 75.93-4.08 76.47-4.3 77.01-4.6 77.55-4.9 78.02-5.2L78.02-5.2Q79.15-5.93 80.25-6.85L80.25-6.85ZM98.49-40.5L98.49-9.4Q98.49-7.75 98.68-6.64 98.87-5.53 99.23-4.84 99.59-4.15 100.13-3.86 100.67-3.58 101.37-3.58L101.37-3.58Q101.92-3.58 102.37-3.64 102.82-3.7 103.14-3.8L103.14-3.8Q103.52-3.9 103.82-4.03L103.82-4.03 105.54-1Q105.34-0.8 104.91-0.56 104.47-0.33 103.87-0.1 103.27 0.13 102.51 0.28 101.74 0.43 100.87 0.43L100.87 0.43Q98.62 0.43 97.22-0.4 95.82-1.23 95.04-2.65 94.27-4.08 94.01-5.96 93.74-7.85 93.74-10L93.74-10 93.74-35 93.24-40 98.49-40.5ZM115.99-23.5L115.99-9.4Q115.99-7.75 116.18-6.64 116.37-5.53 116.73-4.84 117.09-4.15 117.63-3.86 118.17-3.58 118.87-3.58L118.87-3.58Q119.42-3.58 119.87-3.64 120.32-3.7 120.64-3.8L120.64-3.8Q121.02-3.9 121.32-4.03L121.32-4.03 123.04-1Q122.84-0.8 122.4-0.56 121.97-0.33 121.37-0.1 120.77 0.13 120 0.28 119.24 0.43 118.37 0.43L118.37 0.43Q116.12 0.43 114.72-0.4 113.32-1.23 112.54-2.65 111.77-4.08 111.5-5.96 111.24-7.85 111.24-10L111.24-10 111.24-23.5 107.49-23.5 107.49-27.5 111.24-27.5 111.24-32.73 115.87-35.5 115.87-27.5 124.37-27.5 123.87-23.5 115.99-23.5ZM135.99-20.83L135.99 0 131.24 0 131.24-35 130.74-40 135.99-40.5 135.99-23.75 138.21-26.63Q139.19-27.18 140.54-27.55 141.89-27.93 143.49-27.93L143.49-27.93Q147.24-27.93 149.24-25.43 151.24-22.93 151.24-18.25L151.24-18.25 151.24 0 146.49 0 146.49-17.73Q146.49-19.4 146.2-20.58 145.91-21.75 145.39-22.5 144.86-23.25 144.09-23.59 143.31-23.93 142.34-23.93L142.34-23.93Q141.36-23.93 140.44-23.69 139.51-23.45 138.69-23.04 137.86-22.63 137.18-22.06 136.49-21.5 135.99-20.83L135.99-20.83ZM196.38-24.78L193.91-21.95Q192.93-22.83 191.6-23.38 190.26-23.93 188.83-23.93L188.83-23.93Q186.73-23.93 185.26-23.14 183.78-22.35 182.87-21 181.96-19.65 181.53-17.86 181.11-16.07 181.11-14.1L181.11-14.1Q181.11-12.05 181.5-10.19 181.88-8.33 182.81-6.9 183.73-5.48 185.27-4.64 186.81-3.8 189.11-3.8L189.11-3.8Q191.03-3.8 192.37-4.25 193.71-4.7 194.43-5.2L194.43-5.2 196.23-1.68Q194.83-0.73 192.97-0.15 191.11 0.43 188.76 0.43L188.76 0.43Q185.63 0.43 183.28-0.81 180.93-2.05 179.37-4.11 177.81-6.18 177.02-8.86 176.23-11.55 176.23-14.43L176.23-14.43Q176.23-17.03 177-19.46 177.76-21.9 179.32-23.78 180.88-25.65 183.27-26.79 185.66-27.93 188.88-27.93L188.88-27.93Q191.18-27.93 193-27.21 194.81-26.5 196.38-24.78L196.38-24.78ZM221.23-4.5L221.73 0 216.48 0 216.48-4.05 214.13-1.25Q213.71-0.93 213.16-0.63 212.61-0.33 212.04-0.09 211.48 0.15 210.92 0.29 210.36 0.43 209.88 0.43L209.88 0.43Q208.01 0.43 206.29-0.16 204.58-0.75 203.29-1.89 202.01-3.03 201.24-4.71 200.48-6.4 200.48-8.6L200.48-8.6Q200.48-10.93 201.42-12.64 202.36-14.35 203.82-15.49 205.28-16.63 207.08-17.19 208.88-17.75 210.61-17.75L210.61-17.75Q212.03-17.75 213.12-17.6 214.21-17.45 214.96-17.25L214.96-17.25Q215.83-17.03 216.48-16.75L216.48-16.75 216.48-17.63Q216.48-19.1 216.31-20.28 216.13-21.45 215.59-22.26 215.06-23.08 214.04-23.5 213.03-23.93 211.36-23.93L211.36-23.93Q210.01-23.93 208.76-23.74 207.51-23.55 206.53-23.33L206.53-23.33Q205.38-23.05 204.41-22.75L204.41-22.75 202.61-26.1Q203.71-26.6 205.11-27L205.11-27Q206.31-27.35 207.96-27.64 209.61-27.93 211.61-27.93L211.61-27.93Q214.48-27.93 216.36-27.15 218.23-26.38 219.31-24.98 220.38-23.58 220.81-21.61 221.23-19.65 221.23-17.25L221.23-17.25 221.23-4.5ZM216.48-6.85L216.48-13.33Q215.78-13.43 214.98-13.53L214.98-13.53Q214.31-13.6 213.43-13.68 212.56-13.75 211.61-13.75L211.61-13.75Q210.21-13.75 209.04-13.48 207.88-13.2 207.03-12.59 206.18-11.98 205.71-11 205.23-10.03 205.23-8.63L205.23-8.63Q205.23-7.5 205.61-6.58 205.98-5.65 206.63-4.98 207.28-4.3 208.17-3.94 209.06-3.58 210.08-3.58L210.08-3.58Q210.56-3.58 211.09-3.71 211.63-3.85 212.17-4.08 212.71-4.3 213.24-4.6 213.78-4.9 214.26-5.2L214.26-5.2Q215.38-5.93 216.48-6.85L216.48-6.85ZM241.75-23.7L241.75-23.7Q240.75-23.7 239.78-23.3 238.8-22.9 237.9-22.23 237-21.55 236.2-20.65 235.4-19.75 234.73-18.75L234.73-18.75 234.73 0 229.98 0 229.98-27.5 234.73-28 234.73-22.38 237.23-26.75Q237.55-26.95 238.04-27.16 238.53-27.38 239.15-27.54 239.78-27.7 240.49-27.81 241.2-27.93 241.95-27.93L241.95-27.93Q243.08-27.93 243.84-27.73 244.6-27.53 244.98-27.35L244.98-27.35 244.73-23.2Q244.35-23.33 243.6-23.51 242.85-23.7 241.75-23.7ZM266.4-5.63L269.13-3.23Q268.35-2.43 267.43-1.75 266.5-1.07 265.38-0.59 264.25-0.1 262.89 0.16 261.53 0.43 259.85 0.43L259.85 0.43Q256.53 0.43 254.18-0.75 251.83-1.93 250.34-3.9 248.85-5.88 248.16-8.43 247.48-10.98 247.48-13.75L247.48-13.75Q247.48-15.53 247.8-17.26 248.13-19 248.78-20.58 249.43-22.15 250.4-23.5 251.38-24.85 252.68-25.83 253.98-26.8 255.61-27.36 257.25-27.93 259.23-27.93L259.23-27.93Q261.93-27.93 263.9-27.05 265.88-26.18 267.18-24.6 268.48-23.03 269.1-20.83 269.73-18.63 269.73-15.95L269.73-15.95Q269.73-15.18 269.68-14.25 269.63-13.33 269.53-12.5L269.53-12.5 252.23-12.5Q252.23-10.63 252.74-9 253.25-7.38 254.18-6.16 255.1-4.95 256.41-4.26 257.73-3.58 259.35-3.58L259.35-3.58Q260.95-3.58 262.14-3.81 263.33-4.05 264.18-4.39 265.03-4.73 265.56-5.08 266.1-5.43 266.4-5.63L266.4-5.63ZM255.85-16.25L264.98-16.25Q265-16.53 265.01-16.8 265.03-17.07 265.03-17.35L265.03-17.35Q265.03-18.78 264.7-19.98 264.38-21.18 263.71-22.06 263.05-22.95 262.03-23.45 261-23.95 259.6-23.95L259.6-23.95Q257.93-23.95 256.74-23.41 255.55-22.88 254.74-22.04 253.93-21.2 253.44-20.2 252.95-19.2 252.7-18.3L252.7-18.3 251.4-15.58 255.85-16.25ZM311.4-5.63L314.12-3.23Q313.35-2.43 312.42-1.75 311.5-1.07 310.37-0.59 309.25-0.1 307.88 0.16 306.52 0.43 304.85 0.43L304.85 0.43Q301.52 0.43 299.17-0.75 296.82-1.93 295.33-3.9 293.85-5.88 293.16-8.43 292.47-10.98 292.47-13.75L292.47-13.75Q292.47-15.53 292.8-17.26 293.12-19 293.77-20.58 294.42-22.15 295.4-23.5 296.37-24.85 297.67-25.83 298.97-26.8 300.61-27.36 302.25-27.93 304.22-27.93L304.22-27.93Q306.92-27.93 308.9-27.05 310.87-26.18 312.17-24.6 313.47-23.03 314.1-20.83 314.72-18.63 314.72-15.95L314.72-15.95Q314.72-15.18 314.67-14.25 314.62-13.33 314.52-12.5L314.52-12.5 297.22-12.5Q297.22-10.63 297.73-9 298.25-7.38 299.17-6.16 300.1-4.95 301.41-4.26 302.72-3.58 304.35-3.58L304.35-3.58Q305.95-3.58 307.13-3.81 308.32-4.05 309.17-4.39 310.02-4.73 310.56-5.08 311.1-5.43 311.4-5.63L311.4-5.63ZM300.85-16.25L309.97-16.25Q310-16.53 310.01-16.8 310.02-17.07 310.02-17.35L310.02-17.35Q310.02-18.78 309.7-19.98 309.37-21.18 308.71-22.06 308.05-22.95 307.02-23.45 306-23.95 304.6-23.95L304.6-23.95Q302.92-23.95 301.73-23.41 300.55-22.88 299.73-22.04 298.92-21.2 298.43-20.2 297.95-19.2 297.7-18.3L297.7-18.3 296.4-15.58 300.85-16.25ZM344.37 0L338.74 0 332.04-9.55 330.92-12.5 329.79-9.55 323.09 0 318.12 0 328.42-14.7 319.47-27.5 324.74-27.93 330.62-19.53 331.59-16.75 332.54-19.53 338.17-27.5 343.44-27.93 334.09-14.58 344.37 0ZM367.62-24.78L365.14-21.95Q364.17-22.83 362.83-23.38 361.49-23.93 360.07-23.93L360.07-23.93Q357.97-23.93 356.49-23.14 355.02-22.35 354.1-21 353.19-19.65 352.77-17.86 352.34-16.07 352.34-14.1L352.34-14.1Q352.34-12.05 352.73-10.19 353.12-8.33 354.04-6.9 354.97-5.48 356.5-4.64 358.04-3.8 360.34-3.8L360.34-3.8Q362.27-3.8 363.6-4.25 364.94-4.7 365.67-5.2L365.67-5.2 367.47-1.68Q366.07-0.73 364.2-0.15 362.34 0.43 359.99 0.43L359.99 0.43Q356.87 0.43 354.52-0.81 352.17-2.05 350.6-4.11 349.04-6.18 348.25-8.86 347.47-11.55 347.47-14.43L347.47-14.43Q347.47-17.03 348.23-19.46 348.99-21.9 350.55-23.78 352.12-25.65 354.5-26.79 356.89-27.93 360.12-27.93L360.12-27.93Q362.42-27.93 364.23-27.21 366.04-26.5 367.62-24.78L367.62-24.78ZM391.39-5.63L394.11-3.23Q393.34-2.43 392.41-1.75 391.49-1.07 390.36-0.59 389.24-0.1 387.88 0.16 386.51 0.43 384.84 0.43L384.84 0.43Q381.51 0.43 379.16-0.75 376.81-1.93 375.33-3.9 373.84-5.88 373.15-8.43 372.46-10.98 372.46-13.75L372.46-13.75Q372.46-15.53 372.79-17.26 373.11-19 373.76-20.58 374.41-22.15 375.39-23.5 376.36-24.85 377.66-25.83 378.96-26.8 380.6-27.36 382.24-27.93 384.21-27.93L384.21-27.93Q386.91-27.93 388.89-27.05 390.86-26.18 392.16-24.6 393.46-23.03 394.09-20.83 394.71-18.63 394.71-15.95L394.71-15.95Q394.71-15.18 394.66-14.25 394.61-13.33 394.51-12.5L394.51-12.5 377.21-12.5Q377.21-10.63 377.73-9 378.24-7.38 379.16-6.16 380.09-4.95 381.4-4.26 382.71-3.58 384.34-3.58L384.34-3.58Q385.94-3.58 387.13-3.81 388.31-4.05 389.16-4.39 390.01-4.73 390.55-5.08 391.09-5.43 391.39-5.63L391.39-5.63ZM380.84-16.25L389.96-16.25Q389.99-16.53 390-16.8 390.01-17.07 390.01-17.35L390.01-17.35Q390.01-18.78 389.69-19.98 389.36-21.18 388.7-22.06 388.04-22.95 387.01-23.45 385.99-23.95 384.59-23.95L384.59-23.95Q382.91-23.95 381.73-23.41 380.54-22.88 379.73-22.04 378.91-21.2 378.43-20.2 377.94-19.2 377.69-18.3L377.69-18.3 376.39-15.58 380.84-16.25ZM407.21-40.5L407.21-9.4Q407.21-7.75 407.4-6.64 407.59-5.53 407.95-4.84 408.31-4.15 408.85-3.86 409.39-3.58 410.09-3.58L410.09-3.58Q410.64-3.58 411.09-3.64 411.54-3.7 411.86-3.8L411.86-3.8Q412.24-3.9 412.54-4.03L412.54-4.03 414.26-1Q414.06-0.8 413.62-0.56 413.19-0.33 412.59-0.1 411.99 0.13 411.22 0.28 410.46 0.43 409.59 0.43L409.59 0.43Q407.34 0.43 405.94-0.4 404.54-1.23 403.76-2.65 402.99-4.08 402.72-5.96 402.46-7.85 402.46-10L402.46-10 402.46-35 401.96-40 407.21-40.5ZM422.21-40.5L422.21-9.4Q422.21-7.75 422.4-6.64 422.58-5.53 422.95-4.84 423.31-4.15 423.85-3.86 424.38-3.58 425.08-3.58L425.08-3.58Q425.63-3.58 426.08-3.64 426.53-3.7 426.86-3.8L426.86-3.8Q427.23-3.9 427.53-4.03L427.53-4.03 429.26-1Q429.06-0.8 428.62-0.56 428.18-0.33 427.58-0.1 426.98 0.13 426.22 0.28 425.46 0.43 424.58 0.43L424.58 0.43Q422.33 0.43 420.93-0.4 419.53-1.23 418.76-2.65 417.98-4.08 417.72-5.96 417.46-7.85 417.46-10L417.46-10 417.46-35 416.96-40 422.21-40.5ZM451.38-5.63L454.11-3.23Q453.33-2.43 452.41-1.75 451.48-1.07 450.36-0.59 449.23-0.1 447.87 0.16 446.51 0.43 444.83 0.43L444.83 0.43Q441.51 0.43 439.16-0.75 436.81-1.93 435.32-3.9 433.83-5.88 433.14-8.43 432.46-10.98 432.46-13.75L432.46-13.75Q432.46-15.53 432.78-17.26 433.11-19 433.76-20.58 434.41-22.15 435.38-23.5 436.36-24.85 437.66-25.83 438.96-26.8 440.59-27.36 442.23-27.93 444.21-27.93L444.21-27.93Q446.91-27.93 448.88-27.05 450.86-26.18 452.16-24.6 453.46-23.03 454.08-20.83 454.71-18.63 454.71-15.95L454.71-15.95Q454.71-15.18 454.66-14.25 454.61-13.33 454.51-12.5L454.51-12.5 437.21-12.5Q437.21-10.63 437.72-9 438.23-7.38 439.16-6.16 440.08-4.95 441.39-4.26 442.71-3.58 444.33-3.58L444.33-3.58Q445.93-3.58 447.12-3.81 448.31-4.05 449.16-4.39 450.01-4.73 450.54-5.08 451.08-5.43 451.38-5.63L451.38-5.63ZM440.83-16.25L449.96-16.25Q449.98-16.53 449.99-16.8 450.01-17.07 450.01-17.35L450.01-17.35Q450.01-18.78 449.68-19.98 449.36-21.18 448.69-22.06 448.03-22.95 447.01-23.45 445.98-23.95 444.58-23.95L444.58-23.95Q442.91-23.95 441.72-23.41 440.53-22.88 439.72-22.04 438.91-21.2 438.42-20.2 437.93-19.2 437.68-18.3L437.68-18.3 436.38-15.58 440.83-16.25ZM467.2-21.1L467.2 0 462.45 0 462.45-27.5 467.2-28 467.2-23.43 468.73-26.1Q469.18-26.4 469.88-26.73 470.58-27.05 471.44-27.31 472.3-27.58 473.3-27.75 474.3-27.93 475.33-27.93L475.33-27.93Q477.3-27.93 478.67-27.29 480.03-26.65 480.88-25.45 481.73-24.25 482.09-22.55 482.45-20.85 482.45-18.75L482.45-18.75 482.45 0 477.7 0 477.7-18.75Q477.7-20.1 477.52-21.08 477.33-22.05 476.87-22.69 476.4-23.33 475.63-23.63 474.85-23.93 473.7-23.93L473.7-23.93Q472.85-23.93 471.98-23.66 471.1-23.4 470.27-22.99 469.43-22.58 468.64-22.08 467.85-21.58 467.2-21.1L467.2-21.1ZM510.1-24.78L507.63-21.95Q506.65-22.83 505.31-23.38 503.98-23.93 502.55-23.93L502.55-23.93Q500.45-23.93 498.98-23.14 497.5-22.35 496.59-21 495.68-19.65 495.25-17.86 494.83-16.07 494.83-14.1L494.83-14.1Q494.83-12.05 495.21-10.19 495.6-8.33 496.53-6.9 497.45-5.48 498.99-4.64 500.53-3.8 502.83-3.8L502.83-3.8Q504.75-3.8 506.09-4.25 507.43-4.7 508.15-5.2L508.15-5.2 509.95-1.68Q508.55-0.73 506.69-0.15 504.83 0.43 502.48 0.43L502.48 0.43Q499.35 0.43 497-0.81 494.65-2.05 493.09-4.11 491.53-6.18 490.74-8.86 489.95-11.55 489.95-14.43L489.95-14.43Q489.95-17.03 490.71-19.46 491.48-21.9 493.04-23.78 494.6-25.65 496.99-26.79 499.38-27.93 502.6-27.93L502.6-27.93Q504.9-27.93 506.71-27.21 508.53-26.5 510.1-24.78L510.1-24.78ZM533.87-5.63L536.6-3.23Q535.82-2.43 534.9-1.75 533.97-1.07 532.85-0.59 531.72-0.1 530.36 0.16 529 0.43 527.32 0.43L527.32 0.43Q524 0.43 521.65-0.75 519.3-1.93 517.81-3.9 516.32-5.88 515.63-8.43 514.95-10.98 514.95-13.75L514.95-13.75Q514.95-15.53 515.27-17.26 515.6-19 516.25-20.58 516.9-22.15 517.87-23.5 518.85-24.85 520.15-25.83 521.45-26.8 523.09-27.36 524.72-27.93 526.7-27.93L526.7-27.93Q529.4-27.93 531.37-27.05 533.35-26.18 534.65-24.6 535.95-23.03 536.57-20.83 537.2-18.63 537.2-15.95L537.2-15.95Q537.2-15.18 537.15-14.25 537.1-13.33 537-12.5L537-12.5 519.7-12.5Q519.7-10.63 520.21-9 520.72-7.38 521.65-6.16 522.57-4.95 523.88-4.26 525.2-3.58 526.82-3.58L526.82-3.58Q528.42-3.58 529.61-3.81 530.8-4.05 531.65-4.39 532.5-4.73 533.03-5.08 533.57-5.43 533.87-5.63L533.87-5.63ZM523.32-16.25L532.45-16.25Q532.47-16.53 532.49-16.8 532.5-17.07 532.5-17.35L532.5-17.35Q532.5-18.78 532.17-19.98 531.85-21.18 531.18-22.06 530.52-22.95 529.5-23.45 528.47-23.95 527.07-23.95L527.07-23.95Q525.4-23.95 524.21-23.41 523.02-22.88 522.21-22.04 521.4-21.2 520.91-20.2 520.42-19.2 520.17-18.3L520.17-18.3 518.87-15.58 523.32-16.25Z" opacity="1" transform="matrix(1,0,0,1,0,0)" fill="#00d1cd" class="slogan-text-1" data-fill-palette-color="secondary" id="text-1"></path></svg></g></svg></g></svg></g></svg></g><g><svg viewBox="0 0 150.4583862644428 150.4583862644428" height="150.4583862644428" width="150.4583862644428"><g><svg xmlns="http://www.w3.org/2000/svg" xmlns:xlink="http://www.w3.org/1999/xlink" version="1.1" x="0" y="0" viewBox="2.7 0.643 90 90" enable-background="new 0 0 96.4 92.286" xml:space="preserve" height="150.4583862644428" width="150.4583862644428" class="icon-icon-0" data-fill-palette-color="accent" id="icon-0"><path d="M47.691 0.643C22.84 0.643 2.733 20.798 2.7 45.656 2.733 70.506 22.84 90.643 47.691 90.643S92.667 70.505 92.667 45.656H92.7C92.667 20.798 72.544 0.643 47.691 0.643M47.691 76.24C30.821 76.181 17.171 62.532 17.121 45.656 17.171 28.78 30.821 15.097 47.691 15.063 64.578 15.097 78.244 28.779 78.261 45.656 78.244 62.532 64.578 76.181 47.691 76.24M64.159 37.062H56.277V29.19C56.277 25.82 52.455 23.095 47.691 23.095 42.946 23.095 39.106 25.82 39.106 29.19V37.063H31.241C27.87 37.063 25.137 40.903 25.137 45.648 25.137 50.402 27.87 54.233 31.241 54.233H39.106V62.105C39.106 65.475 42.946 68.2 47.691 68.2 52.455 68.2 56.277 65.475 56.277 62.105V54.233H64.159C67.53 54.233 70.246 50.402 70.246 45.648 70.246 40.902 67.53 37.062 64.159 37.062" fill="#39cccc" data-fill-palette-color="accent"></path></svg></g></svg></g></svg></g><defs></defs></svg><rect width="395.52" height="105.74478655533419" fill="none" stroke="none" visibility="hidden"></rect></g></svg></g></svg>